<svg width="280" height="286" viewBox="0 0 280 286" fill="none" xmlns="http://www.w3.org/2000/svg">
<path fill-rule="evenodd" clip-rule="evenodd" d="M63.905 270.367C63.905 270.367 0 217.177 0 181.884C0 146.59 28.6113 117.979 63.905 117.979C99.1988 117.979 127.81 146.59 127.81 181.884C127.81 217.177 63.905 270.367 63.905 270.367ZM63.905 201.547C77.4795 201.547 88.4839 190.542 88.4839 176.968C88.4839 163.393 77.4795 152.389 63.905 152.389C50.3305 152.389 39.3262 163.393 39.3262 176.968C39.3262 190.542 50.3305 201.547 63.905 201.547Z" fill="#22BA8E"/>
<path fill-rule="evenodd" clip-rule="evenodd" d="M216.294 127.81C216.294 127.81 162.22 83.199 162.22 53.5978C162.22 23.9965 186.43 0 216.294 0C246.158 0 270.367 23.9965 270.367 53.5978C270.367 83.199 216.294 127.81 216.294 127.81ZM216.294 63.905C227.154 63.905 235.957 55.1016 235.957 44.2419C235.957 33.3823 227.154 24.5789 216.294 24.5789C205.434 24.5789 196.631 33.3823 196.631 44.2419C196.631 55.1016 205.434 63.905 216.294 63.905Z" fill="#ED9111"/>
<path d="M63.905 280.199H206.482C214.616 280.199 221.21 273.616 221.21 265.422V246.166C221.21 238.005 214.623 231.389 206.472 231.389H157.1C148.96 231.389 142.362 224.786 142.362 216.667V211.865C142.362 203.734 148.94 197.142 157.065 197.142H260.315C268.435 197.142 275.018 190.538 275.018 182.364V167.167C275.018 159.005 268.447 152.389 260.26 152.389H214.692" stroke="#979797" stroke-width="9.83154" stroke-linecap="round" stroke-linejoin="round" stroke-dasharray="19.66 24.58"/>
</svg>
